# xmcd
#
# Track frame offsets:
#       150
#       15135
#       30145
#       49647
#       63187
#       74822
#       88437
#       99545
#       116417
#       140250
#       154000
#       170425
#
# Disc length: 2508 seconds
#
# Revision: 1
# Processed by: cddbd v1.4PL0 Copyright (c) Steve Scherf et al.
# Submitted via: CD-DA_X-Tractor v0.21
#
DISCID=9109ca0c
DTITLE=Lonsperch Roffler - Steirerbuam
DYEAR=1900
DGENRE=
TTITLE0=Valorn und valossn
TTITLE1=Steirabuam
TTITLE2=Harley Davidson
TTITLE3=Schoaf auf di
TTITLE4=Feiarote Hoa
TTITLE5=Obrennt
TTITLE6=Forelle
TTITLE7=Tschika Blues
TTITLE8=Hauns bleib do
TTITLE9=Leni
TTITLE10=Bese Weiba
TTITLE11=Männerschwüre
EXTD=
EXTT0=
EXTT1=
EXTT2=
EXTT3=
EXTT4=
EXTT5=
EXTT6=
EXTT7=
EXTT8=
EXTT9=
EXTT10=
EXTT11=
PLAYORDER=
